<?xml version="1.0" encoding="UTF-8"?>
<svg width="283px" height="131px" viewBox="0 0 283 131" version="1.1" xmlns="http://www.w3.org/2000/svg" xmlns:xlink="http://www.w3.org/1999/xlink">
    <!-- Generator: Sketch 59.1 (86144) - https://sketch.com -->
    <title>Group 4</title>
    <desc>Created with Sketch.</desc>
    <g id="Page-1" stroke="none" stroke-width="1" fill="none" fill-rule="evenodd">
        <g id="Group-3" transform="translate(-11.000000, -12.000000)">
            <g id="Group-4" transform="translate(6.000000, 0.000000)">
                <g id="Group-2" transform="translate(197.000000, 0.000000)" fill-rule="nonzero">
                    <g id="Group" transform="translate(0.000000, 30.000000)" fill="#7CE6D7">
                        <path d="M50.5641299,43.9829736 L50.5643145,43.9824206 L30.1064439,9.57010063 L30.0959312,9.56936683 C29.7104005,8.90278211 28.9975125,8.44920433 28.1713197,8.44920433 C27.4304298,8.44920433 26.7787786,8.81436167 26.3728283,9.36950796 L26.3671108,9.36932554 L26.3536389,9.39273966 C26.2784449,9.49856888 26.2148679,9.61204382 26.158759,9.73040095 L6.38185603,44.0119139 L6.38213251,44.0124668 C6.14454941,44.3670083 6.0050951,44.7925754 6.0050951,45.2510906 C6.0050951,46.4826765 7.00336216,47.4808465 8.23587318,47.4804352 L48.718396,47.4669229 C49.9505382,47.4665117 50.9500182,46.4676749 50.9500182,45.236089 C50.9500182,44.7713066 50.8074695,44.3402117 50.5641299,43.9829736 Z" id="Path" transform="translate(28.477557, 27.964820) rotate(24.000000) translate(-28.477557, -27.964820) "></path>
                    </g>
                    <g id="Group" transform="translate(28.000000, 0.000000)" fill="#F7DC69">
                        <path d="M51.6510502,45.5483176 L51.6512344,45.547764 L31.0990961,11.052972 L31.0885607,11.0522211 C30.701226,10.3840552 29.9861873,9.92844026 29.158303,9.92745839 C28.4158962,9.92658091 27.7634658,10.2910444 27.357529,10.8464019 L27.3517995,10.8462105 L27.3383357,10.8696391 C27.2631487,10.9755119 27.1996142,11.0890595 27.1435706,11.207508 L7.37833844,45.5101094 L7.37861632,45.5106636 C7.14108624,45.8653729 7.00214758,46.2913633 7.00269035,46.7505627 C7.00415411,47.9839861 8.00639668,48.9851646 9.24143116,48.986627 L49.8068386,49.0346614 C51.0415034,49.0361217 52.0410979,48.0373135 52.0396373,46.8038902 C52.0390839,46.3384143 51.8954319,45.9064589 51.6510502,45.5483176 Z" id="Path" transform="translate(29.521164, 29.481060) rotate(-32.000000) translate(-29.521164, -29.481060) "></path>
                    </g>
                    <g id="Group" transform="translate(36.000000, 53.000000)" fill="#E684C3">
                        <path d="M49.7258397,41.4011932 L49.7260237,41.4006409 L29.6966494,7.15242871 L29.6862921,7.15173684 C29.3089056,6.48828998 28.6081014,6.03829111 27.7939023,6.0416984 C27.0637677,6.04479075 26.4201829,6.41127383 26.018005,6.96658022 L26.0123712,6.96642007 L25.9990054,6.98982702 C25.9244987,7.09567838 25.8614111,7.20911204 25.8056646,7.32738718 L6.18489452,41.5986016 L6.18516487,41.599152 C5.94967632,41.9537131 5.81077157,42.3787472 5.80884879,42.8361163 C5.80375748,44.0646234 6.78412292,45.0564873 7.99874189,45.051395 L47.8935901,44.8834698 C49.1078456,44.8783593 50.0962262,43.8782096 50.1013572,42.6497025 C50.1032662,42.1860819 49.9642815,41.7566096 49.7258397,41.4011932 Z" id="Path" transform="translate(27.955103, 25.546547) rotate(-18.000000) translate(-27.955103, -25.546547) "></path>
                    </g>
                </g>
                <text id="DropIn" font-family="Roboto-Medium, Roboto" font-size="72" font-weight="400" letter-spacing="1.30909091" fill="#FFFFFF">
                    <tspan x="0.168892045" y="128">DropIn</tspan>
                </text>
            </g>
        </g>
    </g>
</svg>