<?xml version="1.0" encoding="UTF-8"?>
<svg width="292px" height="75px" viewBox="0 0 292 75" version="1.1" xmlns="http://www.w3.org/2000/svg" xmlns:xlink="http://www.w3.org/1999/xlink">
    <!-- Generator: Sketch 59.1 (86144) - https://sketch.com -->
    <title>Group 5</title>
    <desc>Created with Sketch.</desc>
    <g id="Page-1" stroke="none" stroke-width="1" fill="none" fill-rule="evenodd">
        <g id="Group-3" transform="translate(-5.000000, -384.000000)">
            <g id="Group-5" transform="translate(0.000000, 374.000000)">
                <g id="Group-2" transform="translate(222.000000, 0.000000)" fill-rule="nonzero">
                    <g id="Group" transform="translate(0.000000, 25.000000)" fill="#7CE6D7">
                        <path d="M41.6803299,35.9242269 L41.6804777,35.9237669 L24.6334151,7.0776308 L24.6247733,7.07694542 C24.3033935,6.51825557 23.7145584,6.13472284 23.0358053,6.12913041 C22.4271322,6.12423039 21.8943159,6.42405875 21.5646808,6.88427759 L21.5599823,6.88408556 L21.5490779,6.90352143 C21.4880405,6.99126963 21.4366005,7.08547619 21.3913299,7.18380708 L5.38277974,35.6402418 L5.38301073,35.6407048 C5.19029794,35.9347726 5.07882366,36.2887684 5.08183364,36.6712169 C5.09014659,37.6984851 5.91756747,38.5380277 6.93012859,38.54628 L40.1882722,38.8173933 C41.2005303,38.8255819 42.0143448,37.9994153 42.0061559,36.9721471 C42.0029799,36.5844711 41.8827359,36.2238978 41.6803299,35.9242269 Z" id="Path" transform="translate(23.543995, 22.473262) rotate(24.000000) translate(-23.543995, -22.473262) "></path>
                    </g>
                    <g id="Group" transform="translate(23.000000, 0.000000)" fill="#F7DC69">
                        <path d="M42.7634544,37.6654028 L42.7636072,37.6649449 L25.8448158,9.17369081 L25.8361203,9.17308407 C25.5172854,8.62119266 24.9276632,8.24575898 24.2442859,8.24575898 C23.6314661,8.24575898 23.0924302,8.54821398 22.7566082,9.00789874 L22.751879,9.00774815 L22.7407341,9.02713575 C22.6785296,9.11476667 22.6259335,9.20872722 22.5795142,9.30672955 L6.21851745,37.6928628 L6.21874608,37.6933206 C6.02220337,37.9868943 5.90678476,38.3392684 5.90678476,38.718912 C5.9063468,39.7386463 6.73231437,40.5650367 7.75177381,40.5645986 L41.2364968,40.5502056 C42.2556511,40.5497676 43.0821003,39.7226669 43.0825386,38.7029327 C43.0825386,38.3180999 42.964702,37.9611712 42.7634544,37.6654028 Z" id="Path" transform="translate(24.494662, 24.405179) rotate(-32.000000) translate(-24.494662, -24.405179) "></path>
                    </g>
                    <g id="Group" transform="translate(30.000000, 43.000000)" fill="#E684C3">
                        <path d="M40.8818974,34.3953105 L40.8820454,34.3948664 L24.2866164,6.70168016 L24.2781224,6.70106951 C23.9653436,6.16465941 23.3885393,5.79853756 22.7211117,5.7971047 C22.1225947,5.79582775 21.5968973,6.08775272 21.2700664,6.53303457 L21.2654472,6.53287657 L21.254611,6.55166428 C21.1940782,6.63655409 21.1429454,6.72761088 21.0978553,6.82260573 L5.18992714,34.3303154 L5.19015159,34.3307602 C4.99893253,34.6151806 4.88725129,34.9568706 4.88804044,35.3253142 C4.89017558,36.3149651 5.69894014,37.1190482 6.69460599,37.1211795 L39.3978153,37.1911863 C40.3931831,37.1933126 41.1982689,36.3926841 41.1961422,35.4030332 C41.1953338,35.0295535 41.0791904,34.6828583 40.8818974,34.3953105 Z" id="Path" transform="translate(23.042091, 21.494145) rotate(-18.000000) translate(-23.042091, -21.494145) "></path>
                    </g>
                </g>
                <text id="DropIn" font-family="Roboto-Medium, Roboto" font-size="72" font-weight="400" letter-spacing="1.30909091" fill="#FFFFFF">
                    <tspan x="0.168892045" y="67">DropIn</tspan>
                </text>
            </g>
        </g>
    </g>
</svg>