<?xml version="1.0" encoding="UTF-8"?>
<svg width="46px" height="41px" viewBox="0 0 46 41" version="1.1" xmlns="http://www.w3.org/2000/svg" xmlns:xlink="http://www.w3.org/1999/xlink">
    <!-- Generator: Sketch 59.1 (86144) - https://sketch.com -->
    <title>Group</title>
    <desc>Created with Sketch.</desc>
    <g id="Page-1" stroke="none" stroke-width="1" fill="none" fill-rule="evenodd">
        <g id="Group" transform="translate(28.500000, 12.000000) rotate(92.000000) translate(-28.500000, -12.000000) translate(-1.000000, -17.000000)" fill="#F7DC69" fill-rule="nonzero">
            <path d="M51.6510502,45.5483176 L31.0990961,11.052972 L31.0885607,11.0522211 C30.701226,10.3840552 29.9861873,9.92844024 29.158303,9.92745365 C28.4158962,9.92658089 27.7634658,10.2910444 27.357529,10.8464019 L27.3383357,10.8696391 C27.2631487,10.9755119 27.1996142,11.0890595 27.1435706,11.207508 L7.37833845,45.5101094 C7.14108626,45.8653729 7.0021476,46.2913633 7.00268564,46.7505627 C7.00415412,47.983986 8.00639669,48.9851646 9.24143117,48.9866269 L49.8068386,49.0346661 C51.0415034,49.0361217 52.0410979,48.0373135 52.0396421,46.8038902 C52.0390839,46.3384143 51.8954319,45.9064589 51.6510502,45.5483176 Z" id="Path" transform="translate(29.521164, 29.481060) rotate(-32.000000) translate(-29.521164, -29.481060) "></path>
        </g>
    </g>
</svg>