<?xml version="1.0" encoding="UTF-8"?>
<svg width="46px" height="41px" viewBox="0 0 46 41" version="1.1" xmlns="http://www.w3.org/2000/svg" xmlns:xlink="http://www.w3.org/1999/xlink">
    <!-- Generator: Sketch 59.1 (86144) - https://sketch.com -->
    <title>Group</title>
    <desc>Created with Sketch.</desc>
    <g id="Page-1" stroke="none" stroke-width="1" fill="none" fill-rule="evenodd">
        <g id="Group" transform="translate(28.500000, 11.500000) rotate(36.000000) translate(-28.500000, -11.500000) translate(0.000000, -16.000000)" fill="#7CE6D7" fill-rule="nonzero">
            <path d="M50.5641299,43.9829736 L50.5643145,43.9824206 L30.1064439,9.57010063 L30.0959312,9.56936683 C29.7104005,8.90278211 28.9975125,8.44920433 28.1713197,8.44920433 C27.4304298,8.44920433 26.7787786,8.81436167 26.3728283,9.36950796 L26.3671108,9.36932554 L26.3536389,9.39273966 C26.2784449,9.49856888 26.2148679,9.61204382 26.158759,9.73040095 L6.38185603,44.0119139 L6.38213251,44.0124668 C6.14454941,44.3670083 6.0050951,44.7925754 6.0050951,45.2510906 C6.0050951,46.4826765 7.00336216,47.4808465 8.23587318,47.4804352 L48.718396,47.4669229 C49.9505382,47.4665117 50.9500182,46.4676749 50.9500182,45.236089 C50.9500182,44.7713066 50.8074695,44.3402117 50.5641299,43.9829736 Z" id="Path" transform="translate(28.477557, 27.964820) rotate(24.000000) translate(-28.477557, -27.964820) "></path>
        </g>
    </g>
</svg>