<?xml version="1.0" encoding="UTF-8"?>
<svg width="45px" height="40px" viewBox="0 0 45 40" version="1.1" xmlns="http://www.w3.org/2000/svg" xmlns:xlink="http://www.w3.org/1999/xlink">
    <!-- Generator: Sketch 59.1 (86144) - https://sketch.com -->
    <title>Group</title>
    <desc>Created with Sketch.</desc>
    <g id="Page-1" stroke="none" stroke-width="1" fill="none" fill-rule="evenodd">
        <g id="Group" transform="translate(17.527408, 10.880056) rotate(-41.500000) translate(-17.527408, -10.880056) translate(-10.472592, -14.619944)" fill="#E684C3" fill-rule="nonzero">
            <path d="M49.7258397,41.4011932 L49.7260237,41.4006409 L29.6966494,7.15242871 L29.6862921,7.15173684 C29.3089056,6.48828998 28.6081014,6.03829111 27.7939023,6.0416984 C27.0637677,6.04479075 26.4201829,6.41127383 26.018005,6.96658022 L26.0123712,6.96642007 L25.9990054,6.98982702 C25.9244987,7.09567838 25.8614111,7.20911204 25.8056646,7.32738718 L6.18489452,41.5986016 L6.18516487,41.599152 C5.94967632,41.9537131 5.81077157,42.3787472 5.80884879,42.8361163 C5.80375748,44.0646234 6.78412292,45.0564873 7.99874189,45.051395 L47.8935901,44.8834698 C49.1078456,44.8783593 50.0962262,43.8782096 50.1013572,42.6497025 C50.1032662,42.1860819 49.9642815,41.7566096 49.7258397,41.4011932 Z" id="Path" transform="translate(27.955103, 25.546547) rotate(-18.000000) translate(-27.955103, -25.546547) "></path>
        </g>
    </g>
</svg>